<?xml version="1.0"
      encoding="UTF-8"?>
<svg id="a"
     xmlns="http://www.w3.org/2000/svg"
     width="100"
     height="100"
     xmlns:xlink="http://www.w3.org/1999/xlink"
    viewBox="0 0 100 100">
    <defs>
        <linearGradient id="b" x1="96.47" y1="7.72" x2="15.82" y2="88.37" gradientUnits="userSpaceOnUse">
            <stop offset=".1" stop-color="#fff"/>
            <stop offset=".6" stop-color="#fff"/>
            <stop offset=".9" stop-color="#fff"/>
        </linearGradient>
    </defs>
    <rect width="100" height="100" rx="17.54" ry="17.54" fill="#333"/>
    <polygon points="42.01 42.08 45.81 35.5 68.02 35.5 81.73 11.73 32.09 11.73 10 50 12.29 53.96 39.73 53.96 50.39 72.42 76.28 72.42 71.71 80.35 36.67 80.35 23.72 57.92 14.57 57.92 32.09 88.27 76.28 88.27 90 64.5 54.96 64.5 44.3 46.04 21.43 46.04 36.67 19.66 68.02 19.66 63.44 27.58 41.24 27.58 32.87 42.08 42.01 42.08" fill="url(#b)" fill-rule="evenodd"/>
</svg>
